<svg width="107" height="34" xmlns="http://www.w3.org/2000/svg"><path d="M41.986 17.634c3.762-.78 3.252-5.129 3.14-6.08-.18-1.464-1.969-4.022-4.39-3.818-3.05.257-3.495 4.516-3.495 4.516-.411 1.959.995 6.161 4.745 5.382zm3.996 7.564a2.965 2.965 0 0 0-.144 1.767 2.05 2.05 0 0 0 1.793 1.595h1.973V23.9h-2.109a2.28 2.28 0 0 0-1.513 1.298zm2.993-14.855c2.056 0 3.758-2.314 3.758-5.17S51.056 0 48.979 0c-2.076 0-3.753 2.31-3.753 5.173 0 2.865 1.673 5.17 3.753 5.17h-.004zm8.95.342c2.784.347 4.568-2.52 4.934-4.696.366-2.174-1.435-4.683-3.408-5.124-1.973-.44-4.428 2.62-4.658 4.606-.26 2.436.37 4.868 3.137 5.214h-.004zm6.81 12.77s-4.297-3.218-6.805-6.694c-3.4-5.12-8.223-3.036-9.868-.433-1.644 2.603-4.111 4.256-4.477 4.688-.366.432-5.18 2.958-4.115 7.544 1.064 4.586 4.847 4.529 4.847 4.529 2.01.127 4.03-.024 5.998-.45a13.035 13.035 0 0 1 6.003.172s7.528 2.448 9.588-2.256c2.06-4.704-1.164-7.103-1.164-7.103l-.008.004zm-12.882 6.978h-4.892c-2.114-.408-2.957-1.8-3.063-2.04a5.222 5.222 0 0 1-.383-3.264 4.261 4.261 0 0 1 3.515-3.064h2.607v-3.093l2.22.033-.004 11.428zm9.12-.033H55.34c-2.188-.547-2.286-2.04-2.286-2.04v-6.022l2.286-.037v5.41c.135.576.875.682.875.682h2.323v-6.055h2.43l.004 8.062zm3.761-20.237c-3.318 0-3.762 2.95-3.762 5.043 0 1.987.173 4.774 4.3 4.688 4.129-.086 3.676-4.517 3.676-5.561 0-1.044-.892-4.17-4.206-4.17h-.008zm-32.71 8.43h3.766v-3.207h-3.766v3.206zm0 14.01h3.766V19.992h-3.766v12.611zm-6.143-12.59l-8.05-.021v2.648h7.06s1.681.408 1.681 1.428v.938H20.18s-2.5.22-3.322 3.121a5.156 5.156 0 0 0 .135 2.273 3.952 3.952 0 0 0 3.026 2.24h10.176v-9.021s-.485-3.097-4.313-3.607zm.687 10.142h-5.14a1.678 1.678 0 0 1-.97-.816 1.153 1.153 0 0 1-.02-.914 1.94 1.94 0 0 1 1.11-.959h5.02v2.69zm-13.28-6.12c2.413-1.224 2.105-4.288 2.105-4.288-.259-4.704-6.204-4.488-6.204-4.488H0v17.544h10.373c6.097-.02 5.662-4.618 5.662-4.618.106-3.077-2.747-4.133-2.747-4.133v-.017zM3.951 18.69h5.982s1.303-.057 1.731.943a2.747 2.747 0 0 1-.173 1.783c-.35.51-.91.84-1.529.902h-6.01V18.69zm7.709 10.03c-.358.47-.9.767-1.492.816H3.95v-3.762h6.167l.21.037c.698.138 1.293.59 1.607 1.224.14.576.04 1.183-.275 1.685zm68.052-5.422h7.935v-2.159h-7.092c-.356.05-.509-.1-.456-.448v-1.563h7.556V16.97h-7.56v-1.057h-2.673v5.675c-.15 1.24.613 1.81 2.29 1.71zm7.935.595H77.5v8.866h7.861c1.68.098 2.444-.473 2.29-1.713l-.004-7.153zm-2.52 6.406c0 .298-.181.449-.535.449H80.07v-1.192h5.036l.02.743zm0-2.832h-5.033v-1.354h5.037l-.004 1.354zm-9.004-11.62H73.45v1.416H70.4v2.085h3.128v1.714l-1.907 5.361c-.357.895-.611 1.342-.765 1.342h-.534v1.938h.916c.823 0 1.357-.198 1.604-.595l.686-1.343v2.387c0 .449-.176.645-.534.596h-2.138v2.158h2.899c1.474-.1 2.262-.747 2.364-1.938v-8.486h.917v-2.163h-.917v-1.04h.99v-2.085h-.99l.004-1.346zm16.4 8.491h2.29v-4.39h3.207v-2.236h-.534l.078-1.8h-1.768l-.078 1.788H94.8v-2.073h-2.29v2.085h-.822l-.074-1.8h-1.83l.078 1.788h-.608v2.236h3.289l-.02 4.402zm-3.207-1.787v1.49h1.546c.611.051.942-.271.991-.968l.456-2.448h-1.985l-.23 1.265c-.055.492-.312.714-.77.665l-.008-.004zm12.676-5.822l.078-1.045h-2.442l-.152 1.563c-.103.445-.305.645-.613.596h-.382V20h1.451c.762.049 1.246-.15 1.451-.596l.23-.448h4.873v-2.228h-4.494zm-4.523 7.968h-2.138v.816h-3.564v-.722h-2.138v.743h-.383v2.084h.383v1.787l2.442 1.563-.382.074a2.52 2.52 0 0 1-.457.15h-1.986v1.632h2.52c.4-.011.79-.113 1.144-.297l.917-.596.916.596c.307.165.644.266.991.297h2.442v-1.632h-1.603a1.24 1.24 0 0 1-.535-.15l-.456-.298 1.908-1.632v-1.494h.686v-2.084h-.686l-.02-.837zm-2.138 3.725l-1.525 1.192-2.056-1.343v-.653h3.585l-.004.804zm9.457 2.236l-1.143-2.754 2.594-7.821h-2.594l-1.234 3.945-1.143-3.052h-2.594l2.467 6.642-1.143 3.35a.45.45 0 0 1-.304.151H98.55v1.714h2.364c.66.049 1.041-.2 1.143-.747l.456-1.191.534 1.191c.102.446.458.695 1.07.747h2.29v-1.787h-.991a.592.592 0 0 1-.6-.372l-.03-.016zm-7.45-8.699l-.23-1.264h-1.986l.456 2.309c.005.32.153.622.404.824.25.201.578.282.895.22h1.3v-1.566c-.56.049-.84-.127-.84-.523z" fill="#FFF"/></svg>